<?xml version="1.0" encoding="utf-8"?>
<svg version="1" viewBox="0 0 24 24" enable-background="new 0 0 24 24" xmlns="http://www.w3.org/2000/svg">
  <path d="M 21.6 0 L 2.4 0 C 1.08 0 0 1.08 0 2.4 L 0 21.6 C 0 22.92 1.08 24 2.4 24 L 21.6 24 C 22.92 24 24 22.92 24 21.6 L 24 2.4 C 24 1.08 22.92 0 21.6 0 Z M 18.72 8.16 C 18.72 8.28 18.72 8.4 18.72 8.64 C 18.72 13.2 15.24 18.48 8.88 18.48 C 6.96 18.48 5.16 17.88 3.6 16.92 C 3.84 16.92 4.2 16.92 4.44 16.92 C 6 16.92 7.56 16.32 8.76 15.48 C 7.2 15.48 6 14.4 5.52 13.08 C 5.76 13.08 6 13.2 6.12 13.2 C 6.48 13.2 6.72 13.2 7.08 13.08 C 5.52 12.72 4.32 11.4 4.32 9.72 C 4.32 9.72 4.32 9.72 4.32 9.72 C 4.8 9.96 5.28 10.08 5.88 10.2 C 4.92 9.36 4.32 8.4 4.32 7.2 C 4.32 6.6 4.44 6 4.8 5.52 C 6.48 7.56 9 9 11.88 9.12 C 11.88 8.88 11.76 8.64 11.76 8.28 C 11.76 6.36 13.32 4.8 15.24 4.8 C 16.2 4.8 17.16 5.16 17.76 5.88 C 18.6 5.76 19.32 5.4 19.92 5.04 C 19.68 5.88 19.08 6.48 18.36 6.96 C 19.08 6.84 19.68 6.72 20.4 6.36 C 19.92 7.08 19.32 7.68 18.72 8.16 Z" style="fill: rgb(80, 171, 241);"/>
</svg>