<?xml version="1.0" encoding="utf-8"?>
<svg version="1" id="Layer_1" x="0px" y="0px" viewBox="0 0 24 24" enable-background="new 0 0 266.893 266.895" xmlns="http://www.w3.org/2000/svg">
  <g transform="matrix(0.093125, 0, 0, 0.093125, -0.427259, -0.427256)">
    <path id="Blue_1_" fill="#3C5A99" d="M 248.082 262.307 C 255.936 262.307 262.305 255.938 262.305 248.082 L 262.305 18.812 C 262.305 10.955 255.937 4.588 248.082 4.588 L 18.812 4.588 C 10.955 4.588 4.588 10.955 4.588 18.812 L 4.588 248.082 C 4.588 255.937 10.954 262.307 18.812 262.307 L 248.082 262.307 Z"/>
    <path id="f" fill="#FFFFFF" d="M 182.409 262.307 L 182.409 162.504 L 215.908 162.504 L 220.924 123.609 L 182.409 123.609 L 182.409 98.777 C 182.409 87.516 185.536 79.842 201.684 79.842 L 222.28 79.833 L 222.28 45.045 C 218.718 44.571 206.492 43.512 192.268 43.512 C 162.573 43.512 142.243 61.638 142.243 94.925 L 142.243 123.609 L 108.658 123.609 L 108.658 162.504 L 142.243 162.504 L 142.243 262.307 L 182.409 262.307 Z"/>
  </g>
</svg>