<?xml version="1.0" encoding="utf-8"?>
<svg viewBox="0 0 48 48" xmlns="http://www.w3.org/2000/svg">
  <defs>
    <path id="a" d="M44.5 20H24v8.5h11.8C34.7 33.9 30.1 37 24 37c-7.2 0-13-5.8-13-13s5.8-13 13-13c3.1 0 5.9 1.1 8.1 2.9l6.4-6.4C34.6 4.1 29.6 2 24 2 11.8 2 2 11.8 2 24s9.8 22 22 22c11 0 21-8 21-22 0-1.3-.2-2.7-.5-4z"/>
  </defs>
  <clipPath id="b">
    <path d="M 44.5 20 L 24 20 L 24 28.5 L 35.8 28.5 C 34.7 33.9 30.1 37 24 37 C 16.8 37 11 31.2 11 24 C 11 16.8 16.8 11 24 11 C 27.1 11 29.9 12.1 32.1 13.9 L 38.5 7.5 C 34.6 4.1 29.6 2 24 2 C 11.8 2 2 11.8 2 24 C 2 36.2 11.8 46 24 46 C 35 46 45 38 45 24 C 45 22.7 44.8 21.3 44.5 20 Z"/>
  </clipPath>
  <g>
    <path clip-path="url(#b)" fill="#FBBC05" d="M 0 37 L 0 11 L 17 24 Z"/>
    <path clip-path="url(#b)" fill="#EA4335" d="M 0 11 L 17 24 L 24 17.9 L 48 14 L 48 0 L 0 0 Z"/>
    <path clip-path="url(#b)" fill="#34A853" d="M 0 37 L 30 14 L 37.9 15 L 48 0 L 48 48 L 0 48 Z"/>
    <path clip-path="url(#b)" fill="#4285F4" d="M 48 48 L 17 24 L 13 21 L 48 11 Z"/>
  </g>
</svg>